<svg width="49" height="20" viewBox="0 0 49 20" fill="none" xmlns="http://www.w3.org/2000/svg">
<g clip-path="url(#clip0_6915_4940)">
<path fill-rule="evenodd" clip-rule="evenodd" d="M34.8244 12.7028C34.8244 10.2589 32.8329 9.19707 31.2409 8.34824C30.1713 7.778 29.2821 7.30387 29.2979 6.57138C29.2979 5.99996 29.8331 5.42854 30.988 5.27425C32.3233 5.14522 33.6681 5.3841 34.8807 5.96568L35.5624 2.68571C34.3824 2.23648 33.1328 2.00428 31.8724 2C27.974 2 25.2248 4.10284 25.2023 7.14281C25.2023 9.37136 27.1628 10.6113 28.6557 11.3542C30.1486 12.097 30.7063 12.5999 30.7007 13.2799C30.7007 14.3199 29.4725 14.777 28.3402 14.7942C26.928 14.8259 25.5314 14.4895 24.284 13.817L23.5742 17.177C24.9731 17.7284 26.4619 18.0076 27.9627 17.9998C32.109 17.9998 34.8188 15.9256 34.8357 12.7028H34.8244ZM18.4873 2.27943L12.0932 17.7536H7.91873L4.77521 5.40511C4.71474 4.81885 4.36155 4.30522 3.84004 4.04513C2.60139 3.44453 1.29369 3.00303 -0.0527344 2.73085L0.0430359 2.27943H6.75259C7.66634 2.26847 8.44903 2.94061 8.58912 3.85656L10.2792 12.8108L14.386 2.27943H18.4873ZM48.7899 17.7536H45.1394L44.6605 15.4679H39.5904L38.7679 17.7536H34.6272L40.5312 3.42229C40.8079 2.72397 41.4793 2.26997 42.2212 2.27944H45.6013L48.7899 17.7536ZM40.734 12.2684L42.8128 6.45703L44.0071 12.2684H40.734ZM20.859 17.7534L24.1265 2.2793H20.183L16.9155 17.7534H20.859Z" fill="#1434CB"/>
</g>
<defs>
<clipPath id="clip0_6915_4940">
<rect width="49" height="20" fill="white"/>
</clipPath>
</defs>
</svg>
