<svg width="33" height="20" viewBox="0 0 33 20" fill="none" xmlns="http://www.w3.org/2000/svg">
<g clip-path="url(#clip0_6915_4957)">
<path d="M20.8938 2.13818H12.1436V17.8626H20.8938V2.13818Z" fill="#FF5F00"/>
<path d="M12.6995 10.0003C12.6981 8.48589 13.0413 6.99105 13.703 5.62891C14.3648 4.26676 15.3277 3.07303 16.519 2.13806C15.0438 0.978485 13.272 0.257362 11.4063 0.0571143C9.54063 -0.143134 7.65622 0.185567 5.9685 1.00566C4.28078 1.82575 2.85783 3.10415 1.86231 4.69471C0.866791 6.28528 0.338867 8.12384 0.338867 10.0003C0.338867 11.8767 0.866791 13.7153 1.86231 15.3058C2.85783 16.8964 4.28078 18.1748 5.9685 18.9949C7.65622 19.815 9.54063 20.1437 11.4063 19.9434C13.272 19.7432 15.0438 19.022 16.519 17.8625C15.3277 16.9275 14.3648 15.7338 13.703 14.3716C13.0413 13.0095 12.6981 11.5146 12.6995 10.0003Z" fill="#EB001B"/>
<path d="M32.6982 10.0003C32.6983 11.8767 32.1704 13.7152 31.1749 15.3058C30.1795 16.8964 28.7566 18.1747 27.0689 18.9949C25.3812 19.815 23.4968 20.1437 21.6311 19.9434C19.7655 19.7432 17.9938 19.0221 16.5186 17.8625C17.7088 16.9266 18.671 15.7326 19.3326 14.3707C19.9943 13.0088 20.3381 11.5144 20.3381 10.0003C20.3381 8.48613 19.9943 6.99176 19.3326 5.62983C18.671 4.2679 17.7088 3.07397 16.5186 2.13806C17.9938 0.978481 19.7655 0.257357 21.6311 0.0571117C23.4968 -0.143134 25.3812 0.185581 27.0689 1.00568C28.7566 1.82578 30.1795 3.10418 31.1749 4.69475C32.1704 6.28531 32.6983 8.12387 32.6982 10.0003Z" fill="#F79E1B"/>
<path d="M31.7447 16.1967V15.8748H31.8745V15.8092H31.5439V15.8748H31.6738V16.1967H31.7447ZM32.3865 16.1967V15.8086H32.2852L32.1687 16.0756L32.0521 15.8086H31.9507V16.1967H32.0222V15.904L32.1315 16.1564H32.2057L32.3151 15.9033V16.1967H32.3865Z" fill="#F79E1B"/>
</g>
<defs>
<clipPath id="clip0_6915_4957">
<rect width="33" height="20.0005" fill="white"/>
</clipPath>
</defs>
</svg>
