<svg width="128" height="40" viewBox="0 0 128 40" fill="none" xmlns="http://www.w3.org/2000/svg">
<g clip-path="url(#clip0_7239_377582)">
<path d="M124 40H4C1.8 40 0 38.2 0 36V4C0 1.8 1.8 0 4 0H124C126.2 0 128 1.8 128 4V36C128 38.2 126.2 40 124 40Z" fill="black"/>
<path d="M27 19.799C27 16.699 29.6 15.199 29.7 15.099C28.2 12.999 26 12.699 25.2 12.599C23.3 12.399 21.4 13.699 20.5 13.699C19.5 13.699 18 12.599 16.4 12.599C14.3 12.599 12.4 13.799 11.3 15.699C9.10001 19.499 10.7 25.099 12.8 28.199C13.9 29.699 15.1 31.399 16.7 31.299C18.3 31.199 18.9 30.299 20.8 30.299C22.7 30.299 23.2 31.299 24.9 31.299C26.6 31.299 27.7 29.799 28.7 28.299C29.9 26.599 30.4 24.899 30.4 24.799C30.3 24.699 27 23.499 27 19.799Z" fill="white"/>
<path d="M23.9001 10.5996C24.7001 9.49961 25.3001 8.09961 25.2001 6.59961C24.0001 6.69961 22.4001 7.39961 21.6001 8.49961C20.8001 9.39961 20.1001 10.8996 20.3001 12.2996C21.6001 12.3996 23.0001 11.5996 23.9001 10.5996Z" fill="white"/>
<path d="M49.8 31.0992H47.6L46.4 27.2992H42.2L41.1 31.0992H39L43.2 18.1992H45.8L49.8 31.0992ZM46 25.6992L44.9 22.2992C44.8 21.9992 44.6 21.0992 44.2 19.8992C44.1 20.3992 43.9 21.2992 43.6 22.2992L42.5 25.6992H46Z" fill="white"/>
<path d="M60.5 26.3992C60.5 27.9992 60.1 29.1992 59.2 30.1992C58.4 30.9992 57.5 31.3992 56.3 31.3992C55.1 31.3992 54.2 30.9992 53.7 30.0992V34.9992H51.6V24.9992C51.6 23.9992 51.6 22.9992 51.5 21.8992H53.3L53.4 23.3992C54.1 22.2992 55.1 21.6992 56.5 21.6992C57.6 21.6992 58.5 22.0992 59.2 22.9992C60.1 23.7992 60.5 24.8992 60.5 26.3992ZM58.4 26.3992C58.4 25.4992 58.2 24.6992 57.8 24.1992C57.4 23.5992 56.8 23.2992 56 23.2992C55.5 23.2992 55 23.4992 54.6 23.7992C54.2 24.0992 53.9 24.5992 53.8 25.0992C53.7 25.3992 53.7 25.5992 53.7 25.6992V27.2992C53.7 27.9992 53.9 28.4992 54.3 28.9992C54.7 29.4992 55.3 29.6992 55.9 29.6992C56.7 29.6992 57.3 29.3992 57.7 28.7992C58.2 28.1992 58.4 27.3992 58.4 26.3992Z" fill="white"/>
<path d="M71.2002 26.3992C71.2002 27.9992 70.8002 29.1992 69.9002 30.1992C69.1002 30.9992 68.2002 31.3992 67.0002 31.3992C65.8002 31.3992 64.9002 30.9992 64.4002 30.0992V34.9992H62.3002V24.9992C62.3002 23.9992 62.3002 22.9992 62.2002 21.8992H64.0002L64.1002 23.3992C64.8002 22.2992 65.8002 21.6992 67.2002 21.6992C68.3002 21.6992 69.2002 22.0992 69.9002 22.9992C70.8002 23.7992 71.2002 24.8992 71.2002 26.3992ZM69.1002 26.3992C69.1002 25.4992 68.9002 24.6992 68.5002 24.1992C68.1002 23.5992 67.5002 23.2992 66.7002 23.2992C66.2002 23.2992 65.7002 23.4992 65.3002 23.7992C64.9002 24.0992 64.6002 24.5992 64.5002 25.0992C64.4002 25.3992 64.4002 25.5992 64.4002 25.6992V27.2992C64.4002 27.9992 64.6002 28.4992 65.0002 28.9992C65.4002 29.4992 66.0002 29.6992 66.6002 29.6992C67.4002 29.6992 68.0002 29.3992 68.4002 28.7992C68.9002 28.1992 69.1002 27.3992 69.1002 26.3992Z" fill="white"/>
<path d="M83.1998 27.4996C83.1998 28.5996 82.7998 29.4996 82.0998 30.1996C81.2998 30.9996 80.0998 31.2996 78.5998 31.2996C77.1998 31.2996 76.0998 30.9996 75.2998 30.4996L75.7998 28.7996C76.6998 29.2996 77.6998 29.5996 78.7998 29.5996C79.5998 29.5996 80.1998 29.3996 80.5998 29.0996C80.9998 28.6996 81.1998 28.2996 81.1998 27.6996C81.1998 27.1996 80.9998 26.6996 80.6998 26.3996C80.2998 25.9996 79.6998 25.6996 78.8998 25.3996C76.5998 24.5996 75.4998 23.2996 75.4998 21.6996C75.4998 20.5996 75.8998 19.7996 76.6998 19.0996C77.4998 18.3996 78.4998 18.0996 79.8998 18.0996C81.0998 18.0996 81.9998 18.2996 82.7998 18.6996L82.2998 20.3996C81.5998 19.9996 80.7998 19.7996 79.7998 19.7996C79.0998 19.7996 78.4998 19.9996 78.0998 20.2996C77.7998 20.5996 77.5998 20.9996 77.5998 21.4996C77.5998 21.9996 77.7998 22.3996 78.1998 22.7996C78.4998 23.0996 79.1998 23.3996 80.0998 23.7996C81.1998 24.1996 81.9998 24.7996 82.5998 25.3996C82.8998 25.8996 83.1998 26.5996 83.1998 27.4996Z" fill="white"/>
<path d="M89.9998 23.4H87.6998V27.9C87.6998 29 88.0998 29.6 88.8998 29.6C89.2998 29.6 89.5998 29.6 89.7998 29.5L89.8998 31.1C89.4998 31.3 88.9998 31.3 88.2998 31.3C87.4998 31.3 86.7998 31.1 86.3998 30.6C85.8998 30.1 85.6998 29.3 85.6998 28.1V23.4H84.2998V21.8H85.6998V20.1L87.6998 19.5V21.8H89.9998V23.4Z" fill="white"/>
<path d="M100.3 26.3996C100.3 27.7996 99.9002 28.9996 99.1002 29.8996C98.2002 30.7996 97.1002 31.2996 95.7002 31.2996C94.3002 31.2996 93.2002 30.7996 92.4002 29.8996C91.6002 28.9996 91.2002 27.8996 91.2002 26.4996C91.2002 25.0996 91.6002 23.8996 92.5002 22.9996C93.3002 22.0996 94.5002 21.5996 95.9002 21.5996C97.3002 21.5996 98.4002 22.0996 99.2002 22.9996C99.9002 23.8996 100.3 24.9996 100.3 26.3996ZM98.1002 26.4996C98.1002 25.5996 97.9002 24.8996 97.5002 24.2996C97.1002 23.5996 96.4002 23.1996 95.6002 23.1996C94.8002 23.1996 94.1002 23.5996 93.7002 24.2996C93.3002 24.8996 93.1002 25.6996 93.1002 26.4996C93.1002 27.3996 93.3002 28.0996 93.7002 28.6996C94.1002 29.3996 94.8002 29.7996 95.6002 29.7996C96.4002 29.7996 97.0002 29.3996 97.5002 28.6996C97.9002 28.0996 98.1002 27.2996 98.1002 26.4996Z" fill="white"/>
<path d="M107 23.6C106.8 23.6 106.6 23.5 106.3 23.5C105.6 23.5 105 23.8 104.6 24.3C104.3 24.8 104.1 25.4 104.1 26.1V31H102V24.6C102 23.5 102 22.6 101.9 21.7H103.7L103.8 23.5H103.9C104.1 22.9 104.5 22.4 104.9 22C105.4 21.7 105.9 21.5 106.4 21.5C106.6 21.5 106.8 21.5 106.9 21.5V23.6H107Z" fill="white"/>
<path d="M116.2 25.9996C116.2 26.3996 116.2 26.6996 116.1 26.8996H109.9C109.9 27.7996 110.2 28.4996 110.8 28.9996C111.3 29.3996 112 29.6996 112.8 29.6996C113.7 29.6996 114.6 29.5996 115.3 29.2996L115.6 30.6996C114.7 31.0996 113.7 31.2996 112.5 31.2996C111.1 31.2996 109.9 30.8996 109.1 29.9996C108.3 29.1996 107.9 27.9996 107.9 26.5996C107.9 25.1996 108.3 23.9996 109 23.0996C109.8 22.0996 110.9 21.5996 112.3 21.5996C113.6 21.5996 114.7 22.0996 115.3 23.0996C116 23.8996 116.2 24.8996 116.2 25.9996ZM114.3 25.4996C114.3 24.8996 114.2 24.3996 113.9 23.8996C113.5 23.2996 113 22.9996 112.3 22.9996C111.6 22.9996 111.1 23.2996 110.7 23.7996C110.4 24.1996 110.2 24.7996 110.1 25.3996H114.3V25.4996Z" fill="white"/>
<path d="M42.6189 13.0719C42.1269 13.0719 41.6859 12.9729 41.2959 12.7749C40.9059 12.5709 40.5999 12.2859 40.3779 11.9199L41.1519 11.4429C41.2959 11.6889 41.4939 11.8809 41.7459 12.0189C41.9979 12.1509 42.2829 12.2169 42.6009 12.2169C43.0029 12.2169 43.3149 12.1239 43.5369 11.9379C43.7589 11.7459 43.8699 11.4879 43.8699 11.1639C43.8699 10.8519 43.7649 10.5999 43.5549 10.4079C43.3509 10.2159 43.0569 10.1199 42.6729 10.1199H41.9619V9.33687H42.6729C42.9789 9.33687 43.2189 9.24987 43.3929 9.07587C43.5729 8.90187 43.6629 8.67687 43.6629 8.40087C43.6629 8.11887 43.5639 7.89087 43.3659 7.71688C43.1739 7.54287 42.9069 7.45587 42.5649 7.45587C42.2469 7.45587 41.9709 7.52187 41.7369 7.65387C41.5029 7.78587 41.3199 7.96587 41.1879 8.19387L40.4499 7.68087C40.9299 6.92487 41.6499 6.54688 42.6099 6.54688C43.2339 6.54688 43.7289 6.69988 44.0949 7.00588C44.4609 7.30587 44.6439 7.72287 44.6439 8.25688C44.6439 8.56887 44.5659 8.85387 44.4099 9.11188C44.2599 9.36387 44.0379 9.55587 43.7439 9.68787C44.1039 9.78988 44.3859 9.98187 44.5899 10.2639C44.7939 10.5459 44.8959 10.8759 44.8959 11.2539C44.8959 11.6319 44.7969 11.9589 44.5989 12.2349C44.4069 12.5049 44.1369 12.7119 43.7889 12.8559C43.4469 12.9999 43.0569 13.0719 42.6189 13.0719Z" fill="white"/>
<path d="M45.5078 11.6229C45.5078 11.3289 45.5918 11.0679 45.7598 10.8399C45.9278 10.6119 46.1648 10.4379 46.4708 10.3179C46.7768 10.1919 47.1248 10.1289 47.5148 10.1289C47.7308 10.1289 47.9468 10.1469 48.1628 10.1829C48.3788 10.2129 48.5708 10.2579 48.7388 10.3179V10.0209C48.7388 9.69088 48.6368 9.43287 48.4328 9.24687C48.2348 9.06087 47.9528 8.96788 47.5868 8.96788C47.3348 8.96788 47.0918 9.01287 46.8578 9.10287C46.6238 9.18687 46.3688 9.31887 46.0928 9.49887L45.7598 8.83287C46.3778 8.41887 47.0228 8.21187 47.6948 8.21187C48.3308 8.21187 48.8288 8.37988 49.1888 8.71588C49.5488 9.05188 49.7288 9.52287 49.7288 10.1289V11.8839C49.7288 11.9979 49.7468 12.0789 49.7828 12.1269C49.8248 12.1749 49.8938 12.2019 49.9898 12.2079V12.9999C49.8338 13.0299 49.6928 13.0449 49.5668 13.0449C49.3688 13.0449 49.2128 12.9969 49.0988 12.9009C48.9848 12.8049 48.9188 12.6819 48.9008 12.5319L48.8738 12.2619C48.6698 12.5199 48.4088 12.7239 48.0908 12.8739C47.7788 13.0179 47.4578 13.0899 47.1278 13.0899C46.8158 13.0899 46.5368 13.0269 46.2908 12.9009C46.0448 12.7689 45.8528 12.5919 45.7148 12.3699C45.5768 12.1479 45.5078 11.8989 45.5078 11.6229ZM48.5048 11.9109C48.5768 11.8389 48.6338 11.7639 48.6758 11.6859C48.7178 11.6019 48.7388 11.5299 48.7388 11.4699V10.9299C48.3908 10.7979 48.0308 10.7319 47.6588 10.7319C47.2988 10.7319 47.0048 10.8069 46.7768 10.9569C46.5548 11.1009 46.4438 11.2959 46.4438 11.5419C46.4438 11.7639 46.5278 11.9559 46.6958 12.1179C46.8698 12.2799 47.1068 12.3609 47.4068 12.3609C47.6168 12.3609 47.8178 12.3189 48.0098 12.2349C48.2078 12.1509 48.3728 12.0429 48.5048 11.9109Z" fill="white"/>
<path d="M50.9299 12.9999V8.29288H53.9359V9.16587H51.9199V12.9999H50.9299Z" fill="white"/>
<path d="M55.6728 14.9169H54.6828V8.29288H55.5558V9.13888C55.7418 8.85087 55.9788 8.62587 56.2668 8.46387C56.5548 8.29587 56.8728 8.21187 57.2208 8.21187C57.6408 8.21187 58.0188 8.32287 58.3548 8.54487C58.6968 8.76687 58.9638 9.06387 59.1558 9.43587C59.3478 9.80787 59.4438 10.2099 59.4438 10.6419C59.4438 11.0919 59.3538 11.5059 59.1738 11.8839C58.9938 12.2559 58.7448 12.5499 58.4268 12.7659C58.1148 12.9819 57.7578 13.0899 57.3558 13.0899C56.9898 13.0899 56.6598 13.0029 56.3658 12.8289C56.0778 12.6549 55.8468 12.4179 55.6728 12.1179V14.9169ZM58.4268 10.6419C58.4268 10.3539 58.3608 10.0899 58.2288 9.84987C58.1028 9.60387 57.9288 9.41187 57.7068 9.27387C57.4848 9.12987 57.2358 9.05787 56.9598 9.05787C56.6958 9.05787 56.4318 9.15087 56.1678 9.33687C55.9098 9.51688 55.7448 9.73288 55.6728 9.98488V11.2179C55.7988 11.5119 55.9848 11.7579 56.2308 11.9559C56.4828 12.1479 56.7498 12.2439 57.0318 12.2439C57.3018 12.2439 57.5418 12.1689 57.7518 12.0189C57.9678 11.8689 58.1328 11.6709 58.2468 11.4249C58.3668 11.1789 58.4268 10.9179 58.4268 10.6419Z" fill="white"/>
<path d="M60.338 14.1069C60.548 14.1489 60.707 14.1699 60.815 14.1699C60.923 14.1699 61.013 14.1369 61.085 14.0709C61.157 14.0109 61.229 13.8999 61.301 13.7379C61.379 13.5819 61.478 13.3359 61.598 12.9999L59.663 8.29288H60.698L62.138 11.9919L63.416 8.29288H64.37L62.237 14.0889C62.135 14.3709 61.961 14.5989 61.715 14.7729C61.475 14.9529 61.178 15.0429 60.824 15.0429C60.668 15.0429 60.506 15.0189 60.338 14.9709V14.1069Z" fill="white"/>
<path d="M66.2598 13.0719C65.7857 13.0719 65.3837 12.9879 65.0537 12.8199C64.7297 12.6459 64.4778 12.3969 64.2978 12.0729L65.0987 11.7129C65.3207 12.0849 65.6897 12.2709 66.2057 12.2709C66.5177 12.2709 66.7607 12.2049 66.9347 12.0729C67.1147 11.9409 67.2048 11.7669 67.2048 11.5509C67.2048 11.3469 67.1327 11.1849 66.9888 11.0649C66.8447 10.9449 66.6407 10.8819 66.3767 10.8759H65.8907V10.2459H66.3948C66.5748 10.2459 66.7188 10.1889 66.8267 10.0749C66.9408 9.95487 66.9977 9.80487 66.9977 9.62487C66.9977 9.43887 66.9288 9.29188 66.7908 9.18388C66.6528 9.07588 66.4517 9.02187 66.1877 9.02187C65.9597 9.02187 65.7677 9.06387 65.6117 9.14787C65.4618 9.23187 65.3388 9.36087 65.2428 9.53487L64.4958 9.13888C64.6518 8.85087 64.8798 8.62587 65.1798 8.46387C65.4797 8.30187 65.8307 8.22087 66.2327 8.22087C66.7248 8.22087 67.1208 8.33487 67.4207 8.56287C67.7267 8.78487 67.8797 9.09687 67.8797 9.49887C67.8797 9.72087 67.8258 9.92788 67.7178 10.1199C67.6098 10.3059 67.4538 10.4409 67.2498 10.5249C67.5317 10.6089 67.7477 10.7529 67.8977 10.9569C68.0477 11.1609 68.1227 11.4069 68.1227 11.6949C68.1227 12.1209 67.9487 12.4569 67.6007 12.7029C67.2587 12.9489 66.8118 13.0719 66.2598 13.0719Z" fill="white"/>
<path d="M69.0353 12.9999V8.30188H70.0253V11.6769L72.4103 8.29288H73.3103V12.9999H72.3203V9.69688L69.9623 12.9999H69.0353Z" fill="white"/>
<path d="M75.6093 12.9999V9.16587H74.0523V8.29288H78.1653V9.16587H76.5993V12.9999H75.6093Z" fill="white"/>
<path d="M81.0385 13.0899C80.5645 13.0899 80.1415 12.9819 79.7695 12.7659C79.3975 12.5439 79.1095 12.2469 78.9055 11.8749C78.7015 11.5029 78.5995 11.0979 78.5995 10.6599C78.5995 10.2159 78.7015 9.80787 78.9055 9.43587C79.1095 9.05787 79.3975 8.76087 79.7695 8.54487C80.1415 8.32287 80.5675 8.21187 81.0475 8.21187C81.5215 8.21187 81.9415 8.32287 82.3075 8.54487C82.6735 8.76087 82.9555 9.05488 83.1535 9.42688C83.3515 9.79288 83.4505 10.1889 83.4505 10.6149C83.4505 10.6929 83.4415 10.8129 83.4235 10.9749H79.6525C79.6705 11.2449 79.7455 11.4849 79.8775 11.6949C80.0155 11.9049 80.1895 12.0699 80.3995 12.1899C80.6095 12.3039 80.8345 12.3609 81.0745 12.3609C81.3445 12.3609 81.5935 12.2949 81.8215 12.1629C82.0555 12.0309 82.2175 11.8569 82.3075 11.6409L83.1535 11.8839C82.9855 12.2439 82.7125 12.5349 82.3345 12.7569C81.9565 12.9789 81.5245 13.0899 81.0385 13.0899ZM82.4695 10.3179C82.4335 9.90987 82.2805 9.57987 82.0105 9.32787C81.7405 9.06987 81.4165 8.94087 81.0385 8.94087C80.6605 8.94087 80.3365 9.06987 80.0665 9.32787C79.7965 9.58587 79.6495 9.91587 79.6255 10.3179H82.4695Z" fill="white"/>
<path d="M86.4816 8.29288H89.0016C89.4336 8.29288 89.7606 8.40388 89.9826 8.62587C90.2106 8.84788 90.3246 9.12087 90.3246 9.44487C90.3246 9.70287 90.2616 9.93087 90.1356 10.1289C90.0156 10.3269 89.8416 10.4769 89.6136 10.5789C89.8956 10.6569 90.1176 10.7979 90.2796 11.0019C90.4476 11.1999 90.5316 11.4459 90.5316 11.7399C90.5316 12.1479 90.3876 12.4599 90.0996 12.6759C89.8116 12.8919 89.4186 12.9999 88.9206 12.9999H86.4816V8.29288ZM88.7496 10.3089C88.9356 10.3089 89.0886 10.2429 89.2086 10.1109C89.3286 9.97288 89.3886 9.80787 89.3886 9.61587C89.3886 9.43587 89.3286 9.28588 89.2086 9.16587C89.0946 9.03988 88.9476 8.97687 88.7676 8.97687H87.4176V10.3089H88.7496ZM88.8936 12.3159C89.0856 12.3159 89.2476 12.2499 89.3796 12.1179C89.5116 11.9799 89.5776 11.8179 89.5776 11.6319C89.5776 11.4399 89.5116 11.2779 89.3796 11.1459C89.2536 11.0139 89.0976 10.9479 88.9116 10.9479H87.4176V12.3159H88.8936Z" fill="white"/>
</g>
<defs>
<clipPath id="clip0_7239_377582">
<rect width="128" height="40" fill="white"/>
</clipPath>
</defs>
</svg>
