<svg width="128" height="40" viewBox="0 0 128 40" fill="none" xmlns="http://www.w3.org/2000/svg">
<g clip-path="url(#clip0_7239_377596)">
<path d="M124 40H4C1.8 40 0 38.2 0 36V4C0 1.8 1.8 0 4 0H124C126.2 0 128 1.8 128 4V36C128 38.2 126.2 40 124 40Z" fill="black"/>
<path fill-rule="evenodd" clip-rule="evenodd" d="M9.7998 19.6V9.1C9.7998 8.5 10.2998 8 10.7998 8C11.2998 8 11.4998 8.1 11.7998 8.3L31.0998 18.9C31.4998 19.1 31.6998 19.4 31.6998 19.7C31.6998 20 31.4998 20.3 31.0998 20.5L11.7998 31.1C11.5998 31.2 11.2998 31.4 10.7998 31.4C10.2998 31.4 9.7998 30.9 9.7998 30.3V19.6Z" fill="url(#paint0_linear_7239_377596)"/>
<path fill-rule="evenodd" clip-rule="evenodd" d="M22.2996 19.7L10.5996 8C10.6996 8 10.6996 8 10.7996 8C11.2996 8 11.4996 8.1 11.7996 8.3L25.9996 16.1L22.2996 19.7Z" fill="url(#paint1_linear_7239_377596)"/>
<path fill-rule="evenodd" clip-rule="evenodd" d="M25.8998 23.2004L22.2998 19.6004L25.9998 15.9004L31.0998 18.7004C31.4998 18.9004 31.6998 19.2004 31.6998 19.5004C31.6998 19.8004 31.4998 20.1004 31.0998 20.3004L25.8998 23.2004Z" fill="url(#paint2_linear_7239_377596)"/>
<path fill-rule="evenodd" clip-rule="evenodd" d="M10.7002 31.1996L22.3002 19.5996L25.9002 23.1996L11.8002 30.8996C11.5002 31.0996 11.3002 31.1996 10.7002 31.1996C10.8002 31.1996 10.8002 31.1996 10.7002 31.1996Z" fill="url(#paint3_linear_7239_377596)"/>
<path fill-rule="evenodd" clip-rule="evenodd" d="M71.1004 33.9C70.6004 33.5 70.2004 32.8 70.0004 32.4L71.6004 31.7C71.7004 31.9 71.9004 32.2 72.1004 32.5C72.5004 32.9 73.1004 33.3 73.7004 33.3C74.3004 33.3 75.0004 33 75.4004 32.5C75.7004 32 75.9004 31.5 75.9004 30.8V30.2C74.7004 31.7 72.2004 31.5 70.8004 29.9C69.3004 28.3 69.3004 25.6 70.8004 24C72.3004 22.5 74.5004 22.3 75.8004 23.7V23H77.5004V30.5C77.5004 32.4 76.8004 33.5 75.9004 34.2C75.3004 34.7 74.4004 34.9 73.6004 34.9C72.7004 34.8 71.8004 34.5 71.1004 33.9ZM113 34.3L114.7 30.3L111.7 23.4H113.4L115.5 28.3L117.6 23.4H119.3L114.7 34.3H113ZM104.9 30.5C104.4 30 104.2 29.3 104.2 28.6C104.2 28 104.4 27.4 104.8 27C105.5 26.3 106.5 26 107.6 26C108.3 26 108.9 26.1 109.4 26.4C109.4 25.2 108.4 24.7 107.6 24.7C106.9 24.7 106.2 25.1 105.9 25.8L104.4 25.2C104.7 24.5 105.5 23.2 107.5 23.2C108.5 23.2 109.5 23.5 110.1 24.2C110.7 24.9 110.9 25.7 110.9 26.8V31H109.2V30.3C109 30.6 108.6 30.8 108.3 31C107.9 31.2 107.4 31.3 106.9 31.3C106.3 31.2 105.4 31 104.9 30.5ZM51.6004 26.9C51.6004 24.9 53.1004 22.7 55.8004 22.7C58.4004 22.7 60.0004 24.9 60.0004 26.9C60.0004 28.9 58.5004 31.1 55.8004 31.1C53.1004 31.1 51.6004 28.9 51.6004 26.9ZM60.6004 26.9C60.6004 24.9 62.1004 22.7 64.8004 22.7C67.4004 22.7 69.0004 24.9 69.0004 26.9C69.0004 28.9 67.5004 31.1 64.8004 31.1C62.2004 31.1 60.6004 28.9 60.6004 26.9ZM40.3004 29.1C37.8004 26.6 37.9004 22.5 40.4004 19.9C41.7004 18.6 43.3004 18 45.0004 18C46.6004 18 48.2004 18.6 49.4004 19.8L48.2004 21.1C46.4004 19.3 43.5004 19.4 41.8004 21.2C40.0004 23.1 40.0004 26 41.8004 27.9C43.6004 29.8 46.6004 29.9 48.4004 28C49.0004 27.4 49.2004 26.6 49.3004 25.8H45.1004V24H51.0004C51.1004 24.4 51.1004 24.9 51.1004 25.4C51.1004 26.9 50.5004 28.4 49.5004 29.4C48.4004 30.5 46.8004 31.1 45.2004 31.1C43.4004 31 41.6004 30.4 40.3004 29.1ZM82.6004 29.8C81.1004 28.2 81.1004 25.5 82.6004 23.8C84.1004 22.2 86.6004 22.2 88.0004 23.8C88.5004 24.3 88.8004 25 89.1004 25.7L83.6004 28C83.9004 28.7 84.6004 29.3 85.6004 29.3C86.5004 29.3 87.1004 29 87.7004 28.1L89.2004 29.1C89.0004 29.3 88.8004 29.5 88.7004 29.7C87.0004 31.4 84.1004 31.4 82.6004 29.8ZM93.0004 31V19.9H96.6004C98.7004 19.9 100.4 21.4 100.4 23.2C100.4 25 98.9004 26.5 97.0004 26.5H94.8004V30.9H93.0004V31ZM101.4 31V19.9H103.1V31H101.4ZM78.8004 30.8V18.4H80.6004V30.8H78.8004ZM109.3 27.7C108.9 27.4 108.3 27.3 107.7 27.3C106.5 27.3 105.8 27.9 105.8 28.6C105.8 29.3 106.5 29.7 107.2 29.7C108.2 29.7 109.3 28.9 109.3 27.7ZM58.1004 26.9C58.1004 25.7 57.3004 24.4 55.8004 24.4C54.3004 24.4 53.5004 25.7 53.5004 26.9C53.5004 28.1 54.3004 29.4 55.8004 29.4C57.2004 29.4 58.1004 28.1 58.1004 26.9ZM67.1004 26.9C67.1004 25.7 66.3004 24.4 64.8004 24.4C63.3004 24.4 62.5004 25.7 62.5004 26.9C62.5004 28.1 63.3004 29.4 64.8004 29.4C66.3004 29.4 67.1004 28.1 67.1004 26.9ZM76.0004 27.6C76.0004 27.5 76.0004 27.4 76.1004 27.3C76.1004 27.2 76.1004 27 76.1004 26.9C76.1004 26.8 76.1004 26.6 76.1004 26.5V26.4C76.1004 26.3 76.0004 26.1 76.0004 26C75.7004 25 74.8004 24.3 73.9004 24.3C72.7004 24.3 71.7004 25.5 71.7004 26.8C71.7004 28.2 72.7004 29.3 74.0004 29.3C74.8004 29.4 75.6004 28.7 76.0004 27.6ZM83.3004 26.7L87.0004 25.1C86.6004 24.4 86.0004 24.2 85.5004 24.2C84.0004 24.3 83.1003 25.9 83.3004 26.7ZM98.6004 23.3C98.6004 22.3 97.8004 21.6 96.7004 21.6H94.7004V25.1H96.8004C97.8004 25.1 98.6004 24.3 98.6004 23.3Z" fill="white"/>
<path fill-rule="evenodd" clip-rule="evenodd" d="M114.3 32.2992H114.2V32.1992H114.3H114.2V32.2992H114.3Z" fill="white"/>
<path fill-rule="evenodd" clip-rule="evenodd" d="M114.5 32.2992C114.5 32.1992 114.5 32.1992 114.5 32.2992C114.4 32.1992 114.4 32.1992 114.5 32.2992C114.4 32.2992 114.4 32.2992 114.5 32.2992ZM114.5 32.1992C114.5 32.2992 114.5 32.2992 114.5 32.1992C114.5 32.2992 114.4 32.2992 114.5 32.1992C114.4 32.1992 114.5 32.1992 114.5 32.1992Z" fill="white"/>
<path fill-rule="evenodd" clip-rule="evenodd" d="M114.6 32.1992H114.5H114.6V32.2992V32.1992Z" fill="white"/>
<path d="M41.6189 14.0719C41.1269 14.0719 40.6859 13.9729 40.2959 13.7749C39.9059 13.5709 39.5999 13.2859 39.3779 12.9199L40.1519 12.4429C40.2959 12.6889 40.4939 12.8809 40.7459 13.0189C40.9979 13.1509 41.2829 13.2169 41.6009 13.2169C42.0029 13.2169 42.3149 13.1239 42.5369 12.9379C42.7589 12.7459 42.8699 12.4879 42.8699 12.1639C42.8699 11.8519 42.7649 11.5999 42.5549 11.4079C42.3509 11.2159 42.0569 11.1199 41.6729 11.1199H40.9619V10.3369H41.6729C41.9789 10.3369 42.2189 10.2499 42.3929 10.0759C42.5729 9.90187 42.6629 9.67687 42.6629 9.40087C42.6629 9.11887 42.5639 8.89087 42.3659 8.71688C42.1739 8.54287 41.9069 8.45587 41.5649 8.45587C41.2469 8.45587 40.9709 8.52187 40.7369 8.65387C40.5029 8.78587 40.3199 8.96587 40.1879 9.19387L39.4499 8.68087C39.9299 7.92487 40.6499 7.54688 41.6099 7.54688C42.2339 7.54688 42.7289 7.69988 43.0949 8.00588C43.4609 8.30587 43.6439 8.72287 43.6439 9.25688C43.6439 9.56887 43.5659 9.85387 43.4099 10.1119C43.2599 10.3639 43.0379 10.5559 42.7439 10.6879C43.1039 10.7899 43.3859 10.9819 43.5899 11.2639C43.7939 11.5459 43.8959 11.8759 43.8959 12.2539C43.8959 12.6319 43.7969 12.9589 43.5989 13.2349C43.4069 13.5049 43.1369 13.7119 42.7889 13.8559C42.4469 13.9999 42.0569 14.0719 41.6189 14.0719Z" fill="white"/>
<path d="M44.5078 12.6229C44.5078 12.3289 44.5918 12.0679 44.7598 11.8399C44.9278 11.6119 45.1648 11.4379 45.4708 11.3179C45.7768 11.1919 46.1248 11.1289 46.5148 11.1289C46.7308 11.1289 46.9468 11.1469 47.1628 11.1829C47.3788 11.2129 47.5708 11.2579 47.7388 11.3179V11.0209C47.7388 10.6909 47.6368 10.4329 47.4328 10.2469C47.2348 10.0609 46.9528 9.96788 46.5868 9.96788C46.3348 9.96788 46.0918 10.0129 45.8578 10.1029C45.6238 10.1869 45.3688 10.3189 45.0928 10.4989L44.7598 9.83287C45.3778 9.41887 46.0228 9.21187 46.6948 9.21187C47.3308 9.21187 47.8288 9.37988 48.1888 9.71588C48.5488 10.0519 48.7288 10.5229 48.7288 11.1289V12.8839C48.7288 12.9979 48.7468 13.0789 48.7828 13.1269C48.8248 13.1749 48.8938 13.2019 48.9898 13.2079V13.9999C48.8338 14.0299 48.6928 14.0449 48.5668 14.0449C48.3688 14.0449 48.2128 13.9969 48.0988 13.9009C47.9848 13.8049 47.9188 13.6819 47.9008 13.5319L47.8738 13.2619C47.6698 13.5199 47.4088 13.7239 47.0908 13.8739C46.7788 14.0179 46.4578 14.0899 46.1278 14.0899C45.8158 14.0899 45.5368 14.0269 45.2908 13.9009C45.0448 13.7689 44.8528 13.5919 44.7148 13.3699C44.5768 13.1479 44.5078 12.8989 44.5078 12.6229ZM47.5048 12.9109C47.5768 12.8389 47.6338 12.7639 47.6758 12.6859C47.7178 12.6019 47.7388 12.5299 47.7388 12.4699V11.9299C47.3908 11.7979 47.0308 11.7319 46.6588 11.7319C46.2988 11.7319 46.0048 11.8069 45.7768 11.9569C45.5548 12.1009 45.4438 12.2959 45.4438 12.5419C45.4438 12.7639 45.5278 12.9559 45.6958 13.1179C45.8698 13.2799 46.1068 13.3609 46.4068 13.3609C46.6168 13.3609 46.8178 13.3189 47.0098 13.2349C47.2078 13.1509 47.3728 13.0429 47.5048 12.9109Z" fill="white"/>
<path d="M49.9299 13.9999V9.29288H52.9359V10.1659H50.9199V13.9999H49.9299Z" fill="white"/>
<path d="M54.6728 15.9169H53.6828V9.29288H54.5558V10.1389C54.7418 9.85087 54.9788 9.62587 55.2668 9.46387C55.5548 9.29587 55.8728 9.21187 56.2208 9.21187C56.6408 9.21187 57.0188 9.32287 57.3548 9.54487C57.6968 9.76687 57.9638 10.0639 58.1558 10.4359C58.3478 10.8079 58.4438 11.2099 58.4438 11.6419C58.4438 12.0919 58.3538 12.5059 58.1738 12.8839C57.9938 13.2559 57.7448 13.5499 57.4268 13.7659C57.1148 13.9819 56.7578 14.0899 56.3558 14.0899C55.9898 14.0899 55.6598 14.0029 55.3658 13.8289C55.0778 13.6549 54.8468 13.4179 54.6728 13.1179V15.9169ZM57.4268 11.6419C57.4268 11.3539 57.3608 11.0899 57.2288 10.8499C57.1028 10.6039 56.9288 10.4119 56.7068 10.2739C56.4848 10.1299 56.2358 10.0579 55.9598 10.0579C55.6958 10.0579 55.4318 10.1509 55.1678 10.3369C54.9098 10.5169 54.7448 10.7329 54.6728 10.9849V12.2179C54.7988 12.5119 54.9848 12.7579 55.2308 12.9559C55.4828 13.1479 55.7498 13.2439 56.0318 13.2439C56.3018 13.2439 56.5418 13.1689 56.7518 13.0189C56.9678 12.8689 57.1328 12.6709 57.2468 12.4249C57.3668 12.1789 57.4268 11.9179 57.4268 11.6419Z" fill="white"/>
<path d="M59.338 15.1069C59.548 15.1489 59.707 15.1699 59.815 15.1699C59.923 15.1699 60.013 15.1369 60.085 15.0709C60.157 15.0109 60.229 14.8999 60.301 14.7379C60.379 14.5819 60.478 14.3359 60.598 13.9999L58.663 9.29288H59.698L61.138 12.9919L62.416 9.29288H63.37L61.237 15.0889C61.135 15.3709 60.961 15.5989 60.715 15.7729C60.475 15.9529 60.178 16.0429 59.824 16.0429C59.668 16.0429 59.506 16.0189 59.338 15.9709V15.1069Z" fill="white"/>
<path d="M65.2598 14.0719C64.7857 14.0719 64.3837 13.9879 64.0537 13.8199C63.7297 13.6459 63.4778 13.3969 63.2978 13.0729L64.0987 12.7129C64.3207 13.0849 64.6897 13.2709 65.2057 13.2709C65.5177 13.2709 65.7607 13.2049 65.9347 13.0729C66.1147 12.9409 66.2048 12.7669 66.2048 12.5509C66.2048 12.3469 66.1327 12.1849 65.9888 12.0649C65.8447 11.9449 65.6407 11.8819 65.3767 11.8759H64.8907V11.2459H65.3948C65.5748 11.2459 65.7188 11.1889 65.8267 11.0749C65.9408 10.9549 65.9977 10.8049 65.9977 10.6249C65.9977 10.4389 65.9288 10.2919 65.7908 10.1839C65.6528 10.0759 65.4517 10.0219 65.1877 10.0219C64.9597 10.0219 64.7677 10.0639 64.6117 10.1479C64.4618 10.2319 64.3388 10.3609 64.2428 10.5349L63.4958 10.1389C63.6518 9.85087 63.8798 9.62587 64.1798 9.46387C64.4797 9.30187 64.8307 9.22087 65.2327 9.22087C65.7248 9.22087 66.1208 9.33487 66.4207 9.56287C66.7267 9.78487 66.8797 10.0969 66.8797 10.4989C66.8797 10.7209 66.8258 10.9279 66.7178 11.1199C66.6098 11.3059 66.4538 11.4409 66.2498 11.5249C66.5317 11.6089 66.7477 11.7529 66.8977 11.9569C67.0477 12.1609 67.1227 12.4069 67.1227 12.6949C67.1227 13.1209 66.9487 13.4569 66.6007 13.7029C66.2587 13.9489 65.8118 14.0719 65.2598 14.0719Z" fill="white"/>
<path d="M68.0353 13.9999V9.30188H69.0253V12.6769L71.4103 9.29288H72.3103V13.9999H71.3203V10.6969L68.9623 13.9999H68.0353Z" fill="white"/>
<path d="M74.6093 13.9999V10.1659H73.0523V9.29288H77.1653V10.1659H75.5993V13.9999H74.6093Z" fill="white"/>
<path d="M80.0385 14.0899C79.5645 14.0899 79.1415 13.9819 78.7695 13.7659C78.3975 13.5439 78.1095 13.2469 77.9055 12.8749C77.7015 12.5029 77.5995 12.0979 77.5995 11.6599C77.5995 11.2159 77.7015 10.8079 77.9055 10.4359C78.1095 10.0579 78.3975 9.76087 78.7695 9.54487C79.1415 9.32287 79.5675 9.21187 80.0475 9.21187C80.5215 9.21187 80.9415 9.32287 81.3075 9.54487C81.6735 9.76087 81.9555 10.0549 82.1535 10.4269C82.3515 10.7929 82.4505 11.1889 82.4505 11.6149C82.4505 11.6929 82.4415 11.8129 82.4235 11.9749H78.6525C78.6705 12.2449 78.7455 12.4849 78.8775 12.6949C79.0155 12.9049 79.1895 13.0699 79.3995 13.1899C79.6095 13.3039 79.8345 13.3609 80.0745 13.3609C80.3445 13.3609 80.5935 13.2949 80.8215 13.1629C81.0555 13.0309 81.2175 12.8569 81.3075 12.6409L82.1535 12.8839C81.9855 13.2439 81.7125 13.5349 81.3345 13.7569C80.9565 13.9789 80.5245 14.0899 80.0385 14.0899ZM81.4695 11.3179C81.4335 10.9099 81.2805 10.5799 81.0105 10.3279C80.7405 10.0699 80.4165 9.94087 80.0385 9.94087C79.6605 9.94087 79.3365 10.0699 79.0665 10.3279C78.7965 10.5859 78.6495 10.9159 78.6255 11.3179H81.4695Z" fill="white"/>
<path d="M85.4816 9.29288H88.0016C88.4336 9.29288 88.7606 9.40388 88.9826 9.62587C89.2106 9.84788 89.3246 10.1209 89.3246 10.4449C89.3246 10.7029 89.2616 10.9309 89.1356 11.1289C89.0156 11.3269 88.8416 11.4769 88.6136 11.5789C88.8956 11.6569 89.1176 11.7979 89.2796 12.0019C89.4476 12.1999 89.5316 12.4459 89.5316 12.7399C89.5316 13.1479 89.3876 13.4599 89.0996 13.6759C88.8116 13.8919 88.4186 13.9999 87.9206 13.9999H85.4816V9.29288ZM87.7496 11.3089C87.9356 11.3089 88.0886 11.2429 88.2086 11.1109C88.3286 10.9729 88.3886 10.8079 88.3886 10.6159C88.3886 10.4359 88.3286 10.2859 88.2086 10.1659C88.0946 10.0399 87.9476 9.97687 87.7676 9.97687H86.4176V11.3089H87.7496ZM87.8936 13.3159C88.0856 13.3159 88.2476 13.2499 88.3796 13.1179C88.5116 12.9799 88.5776 12.8179 88.5776 12.6319C88.5776 12.4399 88.5116 12.2779 88.3796 12.1459C88.2536 12.0139 88.0976 11.9479 87.9116 11.9479H86.4176V13.3159H87.8936Z" fill="white"/>
</g>
<defs>
<linearGradient id="paint0_linear_7239_377596" x1="16.2672" y1="6.5736" x2="21.8654" y2="29.5645" gradientUnits="userSpaceOnUse">
<stop stop-color="#006884"/>
<stop offset="1" stop-color="#8AD1D0"/>
</linearGradient>
<linearGradient id="paint1_linear_7239_377596" x1="9.44031" y1="9.8438" x2="24.6963" y2="18.0913" gradientUnits="userSpaceOnUse">
<stop stop-color="#24BBB6"/>
<stop offset="1" stop-color="#DBE692"/>
</linearGradient>
<linearGradient id="paint2_linear_7239_377596" x1="26.9942" y1="23.6205" x2="26.9942" y2="15.6721" gradientUnits="userSpaceOnUse">
<stop stop-color="#FCC072"/>
<stop offset="1" stop-color="#F58A5B"/>
</linearGradient>
<linearGradient id="paint3_linear_7239_377596" x1="12.3949" y1="33.2687" x2="24.4466" y2="21.0035" gradientUnits="userSpaceOnUse">
<stop stop-color="#712B8F"/>
<stop offset="1" stop-color="#EA1D27"/>
</linearGradient>
<clipPath id="clip0_7239_377596">
<rect width="128" height="40" fill="white"/>
</clipPath>
</defs>
</svg>
