<svg width="150" height="38" viewBox="0 0 150 38" fill="none" xmlns="http://www.w3.org/2000/svg">
  <path d="M146.476 14.078C148.954 13.337 150 11.8022 150 8.83841C150 5.66292 148.678 3.493 142.291 3.33423H134.196C133.48 3.33423 132.93 3.86348 132.93 4.5515V5.1866C132.93 5.87462 133.48 6.40387 134.196 6.40387H134.967C135.297 6.40387 135.518 6.66849 135.518 6.93312V19.688C135.518 20.376 136.068 20.9053 136.784 20.9053H137.445C138.161 20.9053 138.711 20.376 138.711 19.688V15.1365C138.711 14.8189 138.987 14.6072 139.262 14.6072H142.291C142.511 14.6072 142.731 14.7131 142.841 14.9248L146.145 20.2702C146.366 20.6936 146.806 20.9053 147.247 20.9053H147.687C148.128 20.9053 148.513 20.6936 148.789 20.3231C149.009 19.9526 149.064 19.5292 148.844 19.1587L146.09 14.8189C146.035 14.6601 146.035 14.5014 146.09 14.3426C146.145 14.2897 146.311 14.1309 146.476 14.078ZM141.905 11.5905H139.317C138.987 11.5905 138.767 11.3259 138.767 11.0612V7.03896C138.767 6.72142 139.042 6.50972 139.317 6.50972H142.07C146.256 6.50972 146.806 7.72699 146.806 8.94426C146.806 10.6908 145.209 11.5905 141.905 11.5905Z" fill="#FE5000"/>
  <path d="M128.744 5.34544C127.148 4.02232 124.89 3.28137 122.137 3.28137C118.943 3.28137 116.3 4.23402 114.648 5.92761C113.161 7.51536 112.5 9.63235 112.775 12.3315C113.326 18.312 116.465 21.3287 122.137 21.3287C125.661 21.3287 131.498 20.1644 131.498 12.3315C131.498 9.26187 130.617 6.88026 128.744 5.34544ZM122.137 17.8886C119.493 17.8886 116.355 16.936 116.355 12.3315C116.355 9.79112 117.346 6.77441 122.137 6.77441C126.927 6.77441 127.918 9.79112 127.918 12.3315C127.918 16.936 124.78 17.8886 122.137 17.8886Z" fill="#FE5000"/>
  <path d="M77.8634 6.45679H78.6344C78.9648 6.45679 79.185 6.72141 79.185 6.98604V19.7409C79.185 20.4289 79.7357 20.9582 80.4515 20.9582H81.1123C81.8282 20.9582 82.3789 20.4289 82.3789 19.7409V15.1894C82.3789 14.8718 82.6542 14.6601 82.9295 14.6601H85.9582C86.1784 14.6601 86.3987 14.766 86.5088 14.9777L89.8128 20.3231C90.033 20.7465 90.4736 20.9582 90.9141 20.9582H91.3546C91.7951 20.9582 92.1806 20.7465 92.4559 20.376C92.6762 20.0055 92.7313 19.5821 92.511 19.2117L89.7577 14.8718C89.7026 14.7131 89.7026 14.5543 89.7577 14.3955C89.8128 14.2367 89.978 14.1309 90.1432 14.078C92.6211 13.337 93.6674 11.8022 93.6674 8.83841C93.6674 5.66292 92.3458 3.493 85.9582 3.33423H77.8634C77.1476 3.33423 76.5969 3.86348 76.5969 4.5515V5.1866C76.5969 5.87462 77.2026 6.45679 77.8634 6.45679ZM82.4339 6.98604C82.4339 6.66849 82.7092 6.45679 82.9846 6.45679H85.7379C89.9229 6.45679 90.4736 7.67406 90.4736 8.89133C90.4736 10.6908 88.8766 11.5905 85.5727 11.5905H82.9846C82.6542 11.5905 82.4339 11.3259 82.4339 11.0612V6.98604Z" fill="#FE5000"/>
  <path d="M59.4162 4.81615C59.4162 4.12812 58.8655 3.59888 58.1496 3.59888H45.0439C44.3281 3.59888 43.7774 4.12812 43.7774 4.81615V5.45124C43.7774 6.13927 44.3281 6.66851 45.0439 6.66851H45.7598C46.0902 6.66851 46.3104 6.93314 46.3104 7.19776V19.688C46.3104 20.376 46.8611 20.9053 47.577 20.9053H48.2378C48.9536 20.9053 49.5043 20.376 49.5043 19.688V14.8189C49.5043 14.5014 49.7796 14.2897 50.0549 14.2897H55.7267C56.4426 14.2897 56.9933 13.7604 56.9933 13.0724V12.4373C56.9933 11.7493 56.4426 11.22 55.7267 11.22H50.1651C49.8347 11.22 49.6144 10.9554 49.6144 10.6908V7.30361C49.6144 6.98606 49.8897 6.77436 50.1651 6.77436H58.1496C58.8655 6.77436 59.4162 6.24512 59.4162 5.55709V4.81615Z" fill="#FE5000"/>
  <path d="M74.0088 20.9582H74.8899C75.3304 20.9582 75.7159 20.7465 75.9361 20.429C76.1564 20.1114 76.2115 19.688 76.1013 19.3175L70.1542 4.39275C69.989 3.91643 69.4934 3.59888 68.9978 3.59888H66.4648C65.9692 3.59888 65.4736 3.91643 65.3084 4.39275L59.3612 19.3175C59.196 19.688 59.2511 20.1114 59.5264 20.429C59.7467 20.7465 60.1322 20.9582 60.5727 20.9582H61.4537C61.9493 20.9582 62.4449 20.6407 62.6101 20.1643L63.7665 17.3064C63.8767 17.0947 64.0419 16.9359 64.3172 16.9359H71.2004C71.4207 16.9359 71.641 17.0947 71.7511 17.3064L72.9075 20.1643C73.0176 20.6407 73.4582 20.9582 74.0088 20.9582ZM70.1542 13.8134C70.1542 13.8134 70.0991 13.9192 69.989 13.9192H65.4185C65.3084 13.9192 65.2533 13.8663 65.1982 13.8134C65.1982 13.7604 65.1432 13.7075 65.1982 13.6017L67.456 7.88578C67.511 7.77993 67.6212 7.72701 67.6762 7.72701C67.7313 7.72701 67.8414 7.72701 67.8965 7.88578L70.2093 13.6546C70.2643 13.7075 70.2093 13.7604 70.1542 13.8134Z" fill="#FE5000"/>
  <path d="M109.031 13.0195V12.3844C109.031 11.6964 108.48 11.1671 107.764 11.1671H102.092C101.762 11.1671 101.542 10.9025 101.542 10.6379V7.25069C101.542 6.93314 101.817 6.72144 102.092 6.72144H110.077C110.793 6.72144 111.344 6.19219 111.344 5.50417V4.81615C111.344 4.12812 110.793 3.59888 110.077 3.59888H97.0264C96.3105 3.59888 95.7599 4.12812 95.7599 4.81615V5.45124C95.7599 6.13927 96.3105 6.66851 97.0264 6.66851H97.7423C98.0727 6.66851 98.2929 6.93314 98.2929 7.19776V19.688C98.2929 20.376 98.8436 20.9053 99.5594 20.9053H100.22C100.936 20.9053 101.487 20.376 101.487 19.688V14.8189C101.487 14.5014 101.762 14.2897 102.037 14.2897H107.709C108.48 14.2368 109.031 13.7075 109.031 13.0195Z" fill="#FE5000"/>
  <path d="M22.1915 0.158704C11.3435 -1.11149 1.48667 6.29798 0.165086 16.6712C-1.1565 27.0974 6.55275 36.571 17.4008 37.8412C28.2488 39.1114 38.1056 31.7019 39.4272 21.2757C40.7488 10.9024 32.9845 1.4289 22.1915 0.158704ZM21.8611 2.80494C23.6232 3.01664 25.3303 3.49297 26.8721 4.18099C25.9911 6.19213 23.7884 7.46233 21.4206 7.1977C19.0528 6.93308 17.2356 5.13364 16.9052 2.96372C18.447 2.64617 20.1541 2.59325 21.8611 2.80494ZM13.9316 3.70467C14.9228 5.76873 14.3721 8.30912 12.3898 9.73809C10.4624 11.22 7.70914 11.1141 5.83689 9.68517C7.81927 6.93308 10.6827 4.86901 13.9316 3.70467ZM2.91839 17.0417C3.13865 15.3481 3.63425 13.7075 4.35011 12.2256C6.66288 12.9665 8.14967 15.1894 7.87434 17.571C7.59901 19.5821 6.16729 21.1699 4.23998 21.752C4.12984 21.752 4.01971 21.8049 3.90958 21.8579C3.63425 21.9108 3.35892 21.9637 3.08359 21.9637C2.75319 20.376 2.69813 18.7353 2.91839 17.0417ZM10.2422 32.4958C7.37874 30.5905 5.1761 27.8913 3.90958 24.7687C4.12984 24.6629 4.35011 24.61 4.57037 24.5041C4.73557 24.4512 4.8457 24.4512 5.0109 24.3983C6.93821 23.9749 9.03073 24.61 10.2972 26.1977C11.8391 28.0501 11.729 30.6963 10.2422 32.4958ZM17.7312 35.1949C16.0241 34.9832 14.4272 34.5598 12.8854 33.9247C13.7113 31.8607 15.9691 30.4846 18.392 30.7492C20.7598 31.0139 22.577 32.8133 22.9074 35.0361C21.2554 35.3537 19.4933 35.4066 17.7312 35.1949ZM22.9074 29.7966C21.751 28.8969 20.3193 28.2618 18.7224 28.0501C17.1254 27.8384 15.5836 28.1559 14.2069 28.791C14.0968 27.3091 13.5461 25.8272 12.4999 24.5041C11.5087 23.2868 10.1871 22.44 8.81046 21.9637C9.80165 20.8523 10.4624 19.4763 10.6276 17.8885C10.8479 16.3008 10.5175 14.8189 9.85672 13.4958C11.3435 13.3899 12.8303 12.8607 14.0968 11.908C15.4184 10.9024 16.3545 9.57932 16.795 8.15035C17.9514 9.05007 19.3831 9.68517 20.9801 9.89687C22.577 10.1086 24.1188 9.79102 25.4955 9.15592C25.6056 10.6378 26.1563 12.1197 27.2025 13.4428C28.1937 14.6601 29.4602 15.5069 30.8369 15.9832C29.8457 17.0946 29.1298 18.5236 28.9646 20.0584C28.7444 21.5933 29.0748 23.1281 29.7356 24.4512C28.2488 24.61 26.8171 25.1392 25.6056 26.0389C24.284 27.0445 23.403 28.3676 22.9074 29.7966ZM25.8259 34.2423C24.8347 32.1782 25.4404 29.6378 27.3677 28.2089C28.9096 27.0445 30.892 26.8857 32.599 27.5208C32.9294 27.7325 33.2598 27.8913 33.6453 28.0501C33.7003 28.103 33.7554 28.1559 33.8105 28.1559C31.8281 30.908 29.0748 33.025 25.8259 34.2423ZM36.4536 16.0361C36.784 17.6239 36.8391 19.3175 36.6188 21.0111C36.3986 22.7047 35.903 24.2924 35.2422 25.7743C35.132 25.7214 35.077 25.7214 34.9669 25.6685C34.6365 25.4568 34.3611 25.298 34.0307 25.1921C32.4889 24.1866 31.6078 22.3871 31.8281 20.4818C32.1034 18.4707 33.5902 16.8829 35.4624 16.3008C35.6276 16.2478 35.7378 16.2478 35.903 16.1949C36.0682 16.0891 36.2334 16.0361 36.4536 16.0361ZM35.1871 13.4428C35.0219 13.4958 34.8017 13.5487 34.6365 13.6016C32.7642 13.9721 30.7268 13.337 29.4602 11.8022C27.9735 9.94979 28.0285 7.4094 29.4602 5.66288C32.2686 7.56818 34.4713 10.2144 35.6827 13.337C35.5175 13.337 35.3523 13.3899 35.1871 13.4428Z" fill="#FE5000"/>
  <path d="M143.722 29.9025H142.456C142.401 29.9025 142.346 29.8496 142.346 29.7966V28.6852C142.346 28.0501 141.795 27.5209 141.134 27.5209C140.474 27.5209 139.923 28.0501 139.923 28.6852V33.5543C139.923 34.2953 140.584 34.9303 141.355 34.9303H143.778C146.255 34.9303 146.806 33.5543 146.806 32.4429C146.751 31.4902 146.366 29.9025 143.722 29.9025ZM143.227 33.4485H142.456C142.401 33.4485 142.346 33.3955 142.346 33.3426V31.4902C142.346 31.4373 142.401 31.3844 142.456 31.3844H143.227C143.888 31.3844 144.328 31.8078 144.328 32.4429C144.273 33.078 143.888 33.4485 143.227 33.4485Z" fill="#FE5000"/>
  <path d="M148.733 27.5209C148.073 27.5209 147.522 28.0501 147.522 28.6852V32.6017V33.5014V33.7131C147.522 34.3482 148.073 34.8774 148.733 34.8774C149.394 34.8774 149.945 34.3482 149.945 33.7131V29.7966V28.8969V28.6852C150 28.0501 149.449 27.5209 148.733 27.5209Z" fill="#FE5000"/>
  <path d="M124.394 29.4262H125.716H126.982C127.533 29.4262 127.974 29.0028 127.974 28.4735C127.974 27.9443 127.533 27.5209 126.982 27.5209H122.907C122.357 27.5209 121.916 27.9443 121.916 28.4735C121.916 28.5264 121.916 28.5794 121.916 28.5794C121.916 28.6323 121.916 28.6852 121.916 28.7381V32.6546V33.6072V33.8189C121.916 33.8719 121.916 33.9248 121.916 33.9777C121.916 34.0306 121.916 34.0306 121.916 34.0835C121.916 34.6128 122.357 35.0362 122.907 35.0362H124.174H125.661H126.927C127.478 35.0362 127.918 34.6128 127.918 34.0835C127.918 33.5543 127.478 33.1309 126.927 33.1309H124.284V32.2312H125.606H126.487C127.037 32.2312 127.478 31.8078 127.478 31.2785C127.478 30.7493 127.037 30.3259 126.487 30.3259H124.229V29.9554V29.4262H124.394Z" fill="#FE5000"/>
  <path d="M138.106 33.078H137.555C137.5 33.078 137.445 33.0251 137.445 32.9721V28.8969C137.445 28.156 136.784 27.5209 136.013 27.5209H132.544C131.773 27.5209 131.112 28.156 131.112 28.8969V29.2674C131.112 30.8551 130.837 32.1783 130.286 33.0251C130.286 33.078 130.231 33.078 130.231 33.078H129.791C129.515 33.078 129.35 33.2897 129.35 33.5014V35.5654C129.35 36.1476 129.846 36.6769 130.507 36.6769C131.112 36.6769 131.663 36.2005 131.663 35.5654V34.9833C131.663 34.9303 131.718 34.8774 131.773 34.8774H136.399C136.454 34.8774 136.509 34.9303 136.509 34.9833V35.6184C136.509 36.2005 137.004 36.6769 137.61 36.6769C138.216 36.6769 138.711 36.2005 138.711 35.6184V33.5014C138.546 33.2368 138.326 33.078 138.106 33.078ZM134.967 32.9721C134.967 33.0251 134.912 33.078 134.857 33.078H132.764C132.709 33.078 132.709 33.078 132.709 33.0251C132.709 32.9721 132.709 32.9721 132.709 32.9192C133.205 32.0195 133.425 31.0668 133.425 29.6908V29.4262V29.3732H133.48H134.857C134.912 29.3732 134.967 29.4262 134.967 29.4791V32.9721Z" fill="#FE5000"/>
  <path d="M96.7511 31.1727C96.696 31.1727 96.696 31.1198 96.696 31.1198C96.696 31.0668 96.696 31.0668 96.7511 31.0139C97.3017 30.6964 97.6321 30.1142 97.6321 29.4262C97.6321 28.2618 96.6409 27.5209 95.044 27.5209H92.2357C91.4647 27.5209 90.859 28.103 90.859 28.844V33.6072C90.859 34.3482 91.4647 34.9303 92.2357 34.9303H95.044C96.9163 34.9303 97.9625 34.1365 97.9625 32.7604C97.9075 31.9666 97.4669 31.3844 96.7511 31.1727ZM93.2268 29.0028C93.2268 28.9498 93.2819 28.8969 93.337 28.8969H94.3282C94.8238 28.8969 95.1542 29.2145 95.1542 29.6379C95.1542 30.1671 94.8238 30.4847 94.3832 30.4847H93.392C93.337 30.4847 93.2819 30.4317 93.2819 30.3788V29.0028H93.2268ZM94.4934 33.5014H93.337C93.2819 33.5014 93.2268 33.4485 93.2268 33.3955V31.8607C93.2268 31.8078 93.2819 31.7549 93.337 31.7549H94.4934C95.044 31.7549 95.4295 32.0724 95.4295 32.6017C95.4295 32.9721 95.2643 33.5014 94.4934 33.5014Z" fill="#FE5000"/>
  <path d="M85.3524 27.5209C84.6365 27.5209 83.7555 27.6796 83.0396 27.9972C82.7643 28.103 82.5991 28.2618 82.489 28.5264C82.3788 28.7911 82.3788 29.0028 82.544 29.2674C82.7092 29.5849 83.0396 29.7966 83.4251 29.7966C83.5352 29.7966 83.7004 29.7966 83.8105 29.7437C84.2511 29.5849 84.6916 29.4791 85.1321 29.4791C85.903 29.4791 86.3436 29.7966 86.3436 30.4317V30.5905C86.3436 30.6434 86.2885 30.6964 86.2334 30.6964H86.0132C83.2599 30.6964 81.663 31.649 81.663 33.1838C81.663 34.454 82.7092 35.4067 84.1409 35.4067C85.0771 35.4067 85.903 34.9833 86.3986 34.3482C86.3986 34.3482 86.4537 34.2952 86.5088 34.2952H86.5638L86.6189 34.3482C86.6189 34.5599 86.674 34.7716 86.8392 34.9303C87.0044 35.0891 87.2246 35.195 87.4449 35.195H87.9405C88.381 35.195 88.7665 34.8245 88.7665 34.4011V30.6434C88.8215 28.6323 87.5 27.5209 85.3524 27.5209ZM86.3436 32.1253C86.3436 32.7604 85.7378 33.5543 84.9119 33.5543C84.4163 33.5543 84.0859 33.2368 84.0859 32.8134C84.0859 32.0724 85.0771 31.8078 86.0132 31.8078H86.2334C86.2885 31.8078 86.3436 31.8607 86.3436 31.9136V32.1253Z" fill="#FE5000"/>
  <path d="M104.956 31.1198V31.0668V31.0139L106.277 28.9498C106.443 28.6852 106.498 28.3147 106.277 27.9972C106.112 27.6796 105.782 27.5209 105.451 27.5209H105.121C104.791 27.5209 104.46 27.6796 104.295 27.9972L103.029 30.1671C103.029 30.22 102.973 30.22 102.973 30.22H102.203C102.147 30.22 102.092 30.1671 102.092 30.1142V28.7381C102.092 28.103 101.542 27.5738 100.881 27.5738C100.22 27.5738 99.6695 28.103 99.6695 28.7381V33.766C99.6695 34.4011 100.22 34.9303 100.881 34.9303C101.542 34.9303 102.092 34.4011 102.092 33.766V32.2312C102.092 32.1783 102.147 32.1253 102.203 32.1253H103.029C103.084 32.1253 103.084 32.1253 103.084 32.1783L104.46 34.454C104.625 34.7716 104.956 34.9303 105.341 34.9303H105.727C106.112 34.9303 106.443 34.7186 106.608 34.4011C106.773 34.0835 106.773 33.7131 106.553 33.3955L104.956 31.1198Z" fill="#FE5000"/>
  <path d="M111.839 27.5209C111.123 27.5209 110.242 27.6796 109.526 27.9972C109.251 28.103 109.086 28.2618 108.976 28.5264C108.866 28.7911 108.866 29.0028 109.031 29.2674C109.196 29.5849 109.526 29.7966 109.912 29.7966C110.022 29.7966 110.187 29.7966 110.297 29.7437C110.738 29.5849 111.178 29.4791 111.619 29.4791C112.39 29.4791 112.83 29.7966 112.83 30.4317V30.5905C112.83 30.6434 112.775 30.6964 112.72 30.6964H112.5C109.747 30.6964 108.15 31.649 108.15 33.1838C108.15 34.454 109.196 35.4067 110.628 35.4067C111.564 35.4067 112.39 34.9833 112.885 34.3482C112.885 34.3482 112.941 34.2952 112.996 34.2952H113.051L113.106 34.3482C113.106 34.5599 113.161 34.7716 113.326 34.9303C113.491 35.0891 113.711 35.195 113.932 35.195H114.427C114.868 35.195 115.253 34.8245 115.253 34.4011V30.6434C115.253 28.6323 113.987 27.5209 111.839 27.5209ZM112.83 32.1253C112.83 32.7604 112.225 33.5543 111.399 33.5543C110.903 33.5543 110.573 33.2368 110.573 32.8134C110.573 32.0724 111.564 31.8078 112.5 31.8078H112.72C112.775 31.8078 112.83 31.8607 112.83 31.9136V32.1253Z" fill="#FE5000"/>
  <path d="M79.8458 27.5209H74.6145C74.0639 27.5209 73.6234 27.9443 73.6234 28.4735C73.6234 29.0028 74.0639 29.4262 74.6145 29.4262H75.8811C75.9361 29.4262 75.9912 29.4791 75.9912 29.532V34.0835C75.9912 34.7186 76.5419 35.2479 77.2027 35.2479C77.8634 35.2479 78.4141 34.7186 78.4141 34.0835V29.532C78.4141 29.4791 78.4692 29.4262 78.5242 29.4262H79.7908C80.3414 29.4262 80.782 29.0028 80.782 28.4735C80.8921 27.9443 80.4516 27.5209 79.8458 27.5209Z" fill="#FE5000"/>
  <path d="M53.8547 33.078H53.3041C53.249 33.078 53.194 33.0251 53.194 32.9721V28.8969C53.194 28.156 52.5332 27.5209 51.7622 27.5209H48.2931C47.5221 27.5209 46.8614 28.156 46.8614 28.8969V29.2674C46.8614 30.8551 46.586 32.1783 46.0354 33.0251C46.0354 33.078 45.9803 33.078 45.9803 33.078H45.5398C45.2644 33.078 45.0992 33.2897 45.0992 33.5014V35.5654C45.0992 36.1476 45.5948 36.6769 46.2556 36.6769C46.9164 36.6769 47.412 36.2005 47.412 35.5654V34.9833C47.412 34.9303 47.4671 34.8774 47.5222 34.8774H52.1477C52.2028 34.8774 52.2578 34.9303 52.2578 34.9833V35.6184C52.2578 36.2005 52.7534 36.6769 53.3592 36.6769C53.9649 36.6769 54.4605 36.2005 54.4605 35.6184V33.5014C54.3503 33.2897 54.1301 33.078 53.8547 33.078ZM50.716 32.9721C50.716 33.0251 50.6609 33.078 50.6058 33.078H48.5133C48.4583 33.078 48.4583 33.078 48.4583 33.0251C48.4583 32.9721 48.4583 32.9721 48.4583 32.9192C48.9539 32.0195 49.1741 31.0668 49.1741 29.6908V29.4262V29.3732H49.2292H50.6609C50.716 29.3732 50.771 29.4262 50.771 29.4791V32.9721H50.716Z" fill="#FE5000"/>
  <path d="M59.6916 27.5209C57.1586 27.5209 55.3414 29.1615 55.3414 31.4373C55.3414 33.6602 57.1586 35.3008 59.7467 35.3008C62.2798 35.3008 64.152 33.6602 64.152 31.4373C64.0969 29.1615 62.2247 27.5209 59.6916 27.5209ZM59.6916 33.2897C58.5903 33.2897 57.8194 32.4958 57.8194 31.3844C57.8194 30.273 58.5903 29.4262 59.6916 29.4262C60.793 29.4262 61.5639 30.273 61.5639 31.3844C61.5639 32.4958 60.793 33.2897 59.6916 33.2897Z" fill="#FE5000"/>
  <path d="M71.586 32.8664C71.4208 32.8664 71.2556 32.9193 71.1455 32.9723C70.705 33.184 70.2644 33.3427 69.8239 33.3427C68.4473 33.3427 67.7314 32.3372 67.7314 31.3845C67.7314 30.4848 68.3371 29.4792 69.7138 29.4792C70.0992 29.4792 70.4847 29.5851 70.8702 29.7438C70.9803 29.7968 71.1455 29.8497 71.2556 29.8497C71.586 29.8497 71.9164 29.6909 72.0816 29.3734C72.2468 29.1617 72.3019 28.8441 72.1918 28.5795C72.1367 28.3149 71.9715 28.1561 71.6962 27.9973C71.0904 27.6798 70.3195 27.521 69.4935 27.521C67.3459 27.521 65.1984 28.8441 65.1984 31.3845C65.1984 33.9249 67.3459 35.248 69.4935 35.248C70.3746 35.248 71.2556 35.0363 72.0266 34.6129C72.4671 34.3483 72.6323 33.8191 72.412 33.3427C72.3019 33.0781 71.9715 32.8664 71.586 32.8664Z" fill="#FE5000"/>
</svg>
