<svg width="56" height="56" viewBox="0 0 56 56" fill="none" xmlns="http://www.w3.org/2000/svg">
<defs>
<linearGradient id="paint0_linear_9531_298787" x1="28.0003" y1="4.66602" x2="28.0003" y2="50.9866" gradientUnits="userSpaceOnUse">
<stop stop-color="#2AABEE"/>
<stop offset="1" stop-color="#229ED9"/>
</linearGradient>
</defs>
<path d="M28.0003 51.3327C40.887 51.3327 51.3337 40.886 51.3337 27.9993C51.3337 15.1127 40.887 4.66602 28.0003 4.66602C15.1137 4.66602 4.66699 15.1127 4.66699 27.9993C4.66699 40.886 15.1137 51.3327 28.0003 51.3327Z" fill="url(#paint0_linear_9531_298787)"/>
<path fill-rule="evenodd" clip-rule="evenodd" d="M15.2283 27.7532C22.0305 24.7897 26.5663 22.8359 28.8358 21.8919C35.3157 19.1967 36.6622 18.7285 37.5398 18.7131C37.7328 18.7097 38.1644 18.7575 38.444 18.9843C38.68 19.1759 38.745 19.4346 38.776 19.6162C38.8071 19.7978 38.8458 20.2115 38.8151 20.5348C38.4639 24.2243 36.9445 33.1779 36.1715 37.3102C35.8444 39.0588 35.2004 39.6451 34.5769 39.7024C33.2219 39.8271 32.1929 38.807 30.8806 37.9467C28.8269 36.6005 27.6667 35.7625 25.6733 34.4489C23.3696 32.9307 24.863 32.0964 26.1759 30.7327C26.5195 30.3759 32.4897 24.9455 32.6053 24.4529C32.6197 24.3913 32.6331 24.1616 32.4967 24.0404C32.3602 23.9191 32.1589 23.9606 32.0136 23.9936C31.8076 24.0403 28.5269 26.2087 22.1714 30.4988C21.2402 31.1383 20.3968 31.4498 19.641 31.4335C18.8079 31.4155 17.2053 30.9624 16.014 30.5752C14.5527 30.1002 13.3913 29.8491 13.4925 29.0424C13.5451 28.6222 14.1238 28.1925 15.2283 27.7532Z" fill="white"/>
</svg>
